<svg width="50" height="50" viewBox="0 0 50 50" fill="none" xmlns="http://www.w3.org/2000/svg">
<path fill-rule="evenodd" clip-rule="evenodd" d="M23 12H8.00001V18.8684L7 19.5149L14.6007 31.272L16 30.3673V35H20V39H30V35H33V30.5649L35.2814 32.4346L44.1554 21.6063L42 19.8399V12H27V17H23V12Z" fill="#E91111"/>
<path fill-rule="evenodd" clip-rule="evenodd" d="M15.041 12.5C13.241 12.5 11.5535 13.1958 10.291 14.4604C7.67021 17.0854 7.67021 21.3583 10.2931 23.9875L24.9994 38.7188L39.7077 23.9875C42.3306 21.3583 42.3306 17.0854 39.7077 14.4604C37.1827 11.9292 32.7327 11.9333 30.2077 14.4604L26.4744 18.2C25.691 18.9854 24.3077 18.9854 23.5244 18.2L19.791 14.4583C18.5285 13.1958 16.8431 12.5 15.041 12.5M24.9994 43.75V43.75C24.4473 43.75 23.916 43.5312 23.5265 43.1375L7.34313 26.9292C3.10146 22.6792 3.10146 15.7646 7.34313 11.5146C9.39313 9.46459 12.1265 8.33334 15.041 8.33334C17.9556 8.33334 20.691 9.46459 22.739 11.5146L24.9994 13.7792L27.2598 11.5167C29.3098 9.46459 32.0431 8.33334 34.9598 8.33334C37.8723 8.33334 40.6077 9.46459 42.6556 11.5146C46.8994 15.7646 46.8994 22.6792 42.6577 26.9292L26.4744 43.1396C26.0827 43.5313 25.5535 43.75 24.9994 43.75" fill="#231F20"/>
<mask id="mask0_1_21" style="mask-type:alpha" maskUnits="userSpaceOnUse" x="4" y="8" width="42" height="36">
<path fill-rule="evenodd" clip-rule="evenodd" d="M15.041 12.5C13.241 12.5 11.5535 13.1958 10.291 14.4604C7.67021 17.0854 7.67021 21.3583 10.2931 23.9875L24.9994 38.7188L39.7077 23.9875C42.3306 21.3583 42.3306 17.0854 39.7077 14.4604C37.1827 11.9292 32.7327 11.9333 30.2077 14.4604L26.4744 18.2C25.691 18.9854 24.3077 18.9854 23.5244 18.2L19.791 14.4583C18.5285 13.1958 16.8431 12.5 15.041 12.5M24.9994 43.75V43.75C24.4473 43.75 23.916 43.5312 23.5265 43.1375L7.34313 26.9292C3.10146 22.6792 3.10146 15.7646 7.34313 11.5146C9.39313 9.46459 12.1265 8.33334 15.041 8.33334C17.9556 8.33334 20.691 9.46459 22.739 11.5146L24.9994 13.7792L27.2598 11.5167C29.3098 9.46459 32.0431 8.33334 34.9598 8.33334C37.8723 8.33334 40.6077 9.46459 42.6556 11.5146C46.8994 15.7646 46.8994 22.6792 42.6577 26.9292L26.4744 43.1396C26.0827 43.5313 25.5535 43.75 24.9994 43.75" fill="white"/>
</mask>
<g mask="url(#mask0_1_21)">
<rect width="50" height="50" fill="black"/>
</g>
</svg>
