<svg width="26" height="22" viewBox="0 0 26 22" fill="none" xmlns="http://www.w3.org/2000/svg">
<path fill-rule="evenodd" clip-rule="evenodd" d="M12.5025 21.25C12.1713 21.25 11.8525 21.1187 11.6188 20.8825L1.90875 11.1575C-0.636248 8.6075 -0.636248 4.45875 1.90875 1.90875C3.13875 0.67875 4.77875 0 6.5275 0C8.27625 0 9.9175 0.67875 11.1463 1.90875L12.5025 3.2675L13.8588 1.91C15.0888 0.67875 16.7288 0 18.4788 0C20.2263 0 21.8675 0.67875 23.0963 1.90875C25.6425 4.45875 25.6425 8.6075 23.0975 11.1575L13.3875 20.8838C13.1525 21.1188 12.835 21.25 12.5025 21.25Z" fill="#E91111"/>
</svg>
